<?xml version="1.0" encoding="UTF-8" standalone="no"?>
<!-- Created with Inkscape (http://www.inkscape.org/) -->

<svg
   xmlns:dc="http://purl.org/dc/elements/1.1/"
   xmlns:cc="http://creativecommons.org/ns#"
   xmlns:rdf="http://www.w3.org/1999/02/22-rdf-syntax-ns#"
   xmlns:svg="http://www.w3.org/2000/svg"
   xmlns="http://www.w3.org/2000/svg"
   xmlns:sodipodi="http://sodipodi.sourceforge.net/DTD/sodipodi-0.dtd"
   xmlns:inkscape="http://www.inkscape.org/namespaces/inkscape"
   width="266.47192mm"
   height="87.682465mm"
   viewBox="0 0 944.19186 310.6859"
   id="svg4154"
   version="1.1"
   inkscape:version="0.91 r13725"
   sodipodi:docname="man_disguise_glasses.svg">
  <defs
     id="defs4156" />
  <sodipodi:namedview
     id="base"
     pagecolor="#ffffff"
     bordercolor="#666666"
     borderopacity="1.0"
     inkscape:pageopacity="0.0"
     inkscape:pageshadow="2"
     inkscape:zoom="0.35"
     inkscape:cx="-150.04691"
     inkscape:cy="223.91438"
     inkscape:document-units="px"
     inkscape:current-layer="layer1"
     showgrid="false"
     fit-margin-top="0"
     fit-margin-left="0"
     fit-margin-right="0"
     fit-margin-bottom="0"
     inkscape:window-width="1855"
     inkscape:window-height="1056"
     inkscape:window-x="65"
     inkscape:window-y="24"
     inkscape:window-maximized="1" />
  <metadata
     id="metadata4159">
    <rdf:RDF>
      <cc:Work
         rdf:about="">
        <dc:format>image/svg+xml</dc:format>
        <dc:type
           rdf:resource="http://purl.org/dc/dcmitype/StillImage" />
        <dc:title></dc:title>
      </cc:Work>
    </rdf:RDF>
  </metadata>
  <g
     inkscape:label="Layer 1"
     inkscape:groupmode="layer"
     id="layer1"
     transform="translate(-30.761195,-445.59068)">
    <path
       inkscape:connector-curvature="0"
       d="m 232.55934,446.24983 c 52.5345,1.7274 104.5451,8.0258 155.9524,19.094 36.4969,7.8579 73.0718,15.1295 110.6059,15.4934 35.1257,0.3405 69.7612,-4.3561 104.2597,-10.3875 40.4958,-7.0797 80.7332,-15.6311 121.4987,-21.1777 36.3666,-4.9479 72.5991,-4.8961 109.0598,0.0826 36.3674,4.9661 72.1562,12.2099 107.5489,21.7732 6.8746,1.8577 14.1394,2.2214 21.1162,3.7628 9.7986,2.1649 13.2985,6.8126 12.1387,16.7617 -1.0123,8.6867 -0.7732,17.2491 0.024,25.9081 0.674,7.3234 -0.8049,13.3917 -8.5853,17.2878 -8.5919,4.3024 -13.7213,12.4304 -17.9457,20.8975 -8.1655,16.3661 -12.0524,34.1566 -16.9592,51.5973 -4.5046,16.0106 -8.5028,32.1701 -14.2004,47.8232 -15.795,43.3943 -46.0686,72.7258 -89.2775,87.4282 -57.3326,19.5082 -114.4514,17.0043 -169.9921,-7.6296 -41.9041,-18.5857 -69.0089,-51.6329 -87.6003,-92.5692 -7.8641,-17.316 -13.575,-35.4111 -19.907,-53.2853 -3.1815,-8.981 -6.9548,-17.6498 -12.7048,-25.3454 -5.1825,-6.936 -11.7229,-11.0199 -20.7028,-11.1254 -8.4816,-0.0995 -16.9323,-1.1871 -25.4366,0.1155 -6.9031,1.0574 -12.0597,4.3518 -15.6788,10.3049 -5.4206,8.9163 -9.0446,18.6177 -11.4885,28.6331 -8.9237,36.5696 -26.137,68.8303 -49.1651,98.3893 -26.3827,33.865 -60.4151,54.9822 -102.6491,62.0281 -46.0753,7.6866 -91.6044,4.9832 -136.0779,-10.1676 -8.2045,-2.795 -16.0305,-6.4935 -23.7859,-10.3552 -20.5111,-10.2133 -35.05079,-25.793 -44.33119,-46.8575 -15.121004,-34.3217 -28.879904,-69.0877 -37.868104,-105.5771 -3.4394,-13.963 -9.9717,-25.8879 -20.6906,-35.7168 -8.38,-7.6843 -16.0108,-16.193 -18.0347,-28.0737 -1.3802,-8.1024 -0.88,-16.299 -0.5831,-24.4417 0.1336,-3.6633 0.3855,-7.3314 0.09,-10.9678 -0.2885,-3.5497 1.0308,-5.0991 4.5546,-5.5917 28.2167,-3.9449 55.8589,-10.868 83.790304,-16.2988 28.13349,-5.4702 56.39739,-10.0756 85.04159,-11.7283 9.2986,-0.5366 18.6545,-0.0844 27.9843,-0.0844 z m 512.1684,19.8343 c -33.298,0.4229 -62.4651,2.7032 -91.0939,9.7976 -20.8975,5.1787 -41.45,11.2814 -59.7828,23.0797 -15.5231,9.99 -26.616,23.1974 -29.1599,42.0976 -1.5032,11.1683 -0.5573,22.3584 2.2538,33.2272 9.1786,35.4888 24.0269,68.5287 45.8495,97.9683 20.4443,27.58 47.575,46.4575 80.9309,55.4229 41.2719,11.093 82.6959,10.7421 123.8924,-0.5101 36.3957,-9.9409 61.447,-32.6934 75.0356,-67.9951 4.0111,-10.4205 7.2325,-21.0757 10.1893,-31.8271 8.1134,-29.5025 13.9169,-59.3232 12.4694,-90.1429 -0.8558,-18.2228 -8.9268,-32.4562 -23.9094,-42.7863 -9.2871,-6.4033 -19.5742,-10.7039 -30.4095,-13.5463 -39.3848,-10.3317 -79.6566,-13.5928 -116.2654,-14.7855 z m -460.9521,0.0517 c -33.3933,1.2347 -55.6744,2.5522 -77.8867,4.8721 -21.214,2.2158 -42.3024,5.0444 -62.5741,12.1735 -33.01019,11.6089 -46.372094,30.3199 -46.012794,65.2279 0.4156,40.3774 10.367604,78.7589 25.592404,115.8206 13.71529,33.387 38.91199,54.1526 73.52059,63.5889 30.9359,8.4351 62.3977,10.2007 94.1193,5.9819 37.7902,-5.026 70.8685,-19.9938 97.9008,-47.4421 12.9219,-13.1209 22.205,-28.6091 30.3785,-44.9072 12.4071,-24.7396 24.4634,-49.686 28.8965,-77.3062 4.3958,-27.387 -4.4412,-49.5388 -28.2053,-64.9647 -6.1617,-3.9998 -12.5852,-7.5095 -19.3771,-10.2979 -40.8398,-16.7662 -83.483,-23.2961 -116.3521,-22.7468 z"
       id="path11" />
  </g>
</svg>
