<?xml version="1.0" encoding="iso-8859-1"?>
<!-- Generator: Adobe Illustrator 17.1.0, SVG Export Plug-In . SVG Version: 6.00 Build 0)  -->
<!DOCTYPE svg PUBLIC "-//W3C//DTD SVG 1.1//EN" "http://www.w3.org/Graphics/SVG/1.1/DTD/svg11.dtd">
<svg version="1.1" id="Capa_1" xmlns="http://www.w3.org/2000/svg" xmlns:xlink="http://www.w3.org/1999/xlink" x="0px" y="0px"
	 viewBox="0 0 221.519 221.519" style="enable-background:new 0 0 221.519 221.519;" xml:space="preserve">
<g>
<path d="M220.812,154.589L214.77,172.9c-1.911,5.796-7.297,9.691-13.402,9.691H20.152c-6.104,0-11.489-3.895-13.402-9.69
	l-6.042-18.313c-1.415-4.288-0.681-9.032,1.965-12.691c2.646-3.659,6.922-5.844,11.438-5.844h23.244v-32.585
	c0-35.588,28.952-64.54,64.54-64.54h16.864c35.588,0,64.54,28.952,64.54,64.54v32.585h24.111c4.516,0,8.791,2.185,11.438,5.844
	C221.493,145.556,222.227,150.3,220.812,154.589z"/>

</g>
</svg>
