<?xml version="1.0" encoding="iso-8859-1"?>
<!-- Generator: Adobe Illustrator 19.0.0, SVG Export Plug-In . SVG Version: 6.00 Build 0)  -->
<svg version="1.1" id="Layer_1" xmlns="http://www.w3.org/2000/svg" xmlns:xlink="http://www.w3.org/1999/xlink" x="0px" y="0px"
	 viewBox="0 0 511.688 511.688" style="enable-background:new 0 0 511.688 511.688;" xml:space="preserve">

<g>
	<path d="M494.925,358.229c-12.45-10.061-90.001-51.055-98.807-55.697c-2.603-1.365-5.734-1.314-8.286,0.188
		c-0.529,0.307-53.248,30.686-84.873,6.315c-1.331-1.109-133.922-112.256-213.308-248.576c-2.278-3.917-7.219-5.35-11.247-3.311
		c-0.179,0.094-4.437,2.27-10.675,6.562l-5.171,3.541C23.365,94.045-21.06,124.407,10.991,197.589
		c4.198,9.591,8.559,17.596,12.766,25.344c18.33,33.69,35.644,65.519,35.644,223.684c0,4.71,3.823,8.533,8.533,8.533h17.067
		c4.437,0,8.141-3.405,8.508-7.825l15.804-190.362c24.124,16.879,80.384,60.134,121.788,122.155
		c32.512,48.691,80.717,75.691,135.765,76.032c1.801,0.009,3.524,0.085,5.214,0.154c1.894,0.077,3.831,0.162,5.845,0.162
		c2.133,0,4.361-0.094,6.733-0.375c18.586-2.167,62.293-8.866,94.703-18.654c16.171-4.89,28.228-18.176,31.454-34.671
		C514.066,385.168,508.126,368.887,494.925,358.229z"/>
</g>

</svg>
