<?xml version='1.0' encoding='iso-8859-1'?>
<svg version="1.1" xmlns="http://www.w3.org/2000/svg" viewBox="0 0 298 298" xmlns:xlink="http://www.w3.org/1999/xlink" enable-background="new 0 0 298 298">
    <g>
      <path d="m290,119.124h-11.278c-4.797-11.502-14.41-20.223-29.945-22.705-11.801-1.887-42.777-2.295-42.777-2.295h-114c0,0-30.976,0.408-42.776,2.295-15.535,2.482-25.148,11.203-29.945,22.705h-11.279c-4.418,0-8,3.582-8,8s3.582,8 8,8h7.581c-1.01,14.564 3.189,30.227 10.241,41.856 17.558,28.961 55.225,41.261 93.416,1.989 12.123-12.463 18.024-22.889 20.906-33.377 0,0 0.498-2.466 0.762-3.29 1.094-3.42 4.271-6.179 8.011-6.179h0.166c3.649,0 6.763,2.675 7.928,5.972 0.316,0.898 0.808,3.292 0.822,3.347 2.874,10.514 8.776,21.131 20.929,33.625 38.191,39.27 75.858,26.833 93.416-2.126 7.081-11.679 10.769-27.871 10.073-41.817h7.749c4.418,0 8-3.582 8-8s-3.582-8-8-8zm-132.88,2.42c-2.518-0.881-5.222-1.42-8.037-1.42h-0.166c-2.815,0-5.519,0.539-8.037,1.42-1.042-4.254-2.775-7.42-5.15-11.42h26.541c-2.376,4-4.109,7.166-5.151,11.42z"/>
    </g>
</svg>
