<?xml version="1.0" encoding="iso-8859-1"?>
<!-- Generator: Adobe Illustrator 19.0.0, SVG Export Plug-In . SVG Version: 6.00 Build 0)  -->
<svg version="1.1" id="Layer_1" xmlns="http://www.w3.org/2000/svg" xmlns:xlink="http://www.w3.org/1999/xlink" x="0px" y="0px"
	 viewBox="0 0 511.999 511.999" style="enable-background:new 0 0 511.999 511.999;" xml:space="preserve">

		<g>
			<path d="M283.598,234.999h-35.003V176.92c0-11.598-9.403-21-21-21c-11.598,0-21,9.402-21,21v79.08c0,11.598,9.403,21,21,21
				h56.003c11.598,0,21-9.402,21-21S295.197,234.999,283.598,234.999z"/>
			<path d="M421.234,205.611h-40.605L370.524,71.094c-0.524-6.971-4.416-12.924-10.003-16.341V21c0-11.598-9.402-21-21-21H115.671
				c-11.598,0-21,9.402-21,21v33.753c-5.586,3.417-9.479,9.37-10.003,16.34L73.23,223.348c-4.686,22.082-4.571,44.467,0.043,65.872
				l11.395,151.686c0.524,6.971,4.416,12.924,10.003,16.34v33.753c0,11.598,9.403,21,21,21h223.851c11.598,0,21-9.402,21-21v-33.753
				c5.587-3.417,9.479-9.37,10.003-16.341l10.105-134.517h40.605c11.598,0,21-9.403,21-21V226.61
				C442.234,215.014,432.831,205.611,421.234,205.611z M136.671,42h181.85v9.666h-181.85V42z M318.522,470h-181.85v-9.666h181.85
				V470z M232.621,371.668c-76.588,3.223-134.515-67.069-118.048-140.852c25.839-116.713,195.81-123.622,225.457-2.411
				C357.306,299.079,305.794,368.468,232.621,371.668z"/>
		</g>
</svg>
